<svg width="1280" height="420" viewBox="0 0 1280 420" xmlns="http://www.w3.org/2000/svg" role="img" aria-labelledby="title desc"><title id="title">Pigmeu Never Forget horizontal logo</title><desc id="desc">Mascot logo with a pygmy rider on a dark elephant, in a style close to Pigmeu Copilot, with a blue-cyan palette and transparent background.</desc><defs><linearGradient id="beastTop" x1="132" y1="140" x2="364" y2="320"><stop offset="0" stop-color="#43576A"/><stop offset="1" stop-color="#13202A"/></linearGradient><linearGradient id="beastFace" x1="224" y1="176" x2="376" y2="332"><stop offset="0" stop-color="#253746"/><stop offset="1" stop-color="#0A1016"/></linearGradient><linearGradient id="eyeGlow" x1="0" y1="0" x2="1" y2="1"><stop offset="0" stop-color="#6CF2FF"/><stop offset="1" stop-color="#00A7D6"/></linearGradient><filter id="glow" x="0" y="0" width="200%" height="200%"><feOffset dx="0" dy="0"/><feGaussianBlur stdDeviation="7" result="blur"/><feColorMatrix in="blur" type="matrix" values="1 0 0 0 0.12 0 1 0 0 0.78 0 0 1 0 0.92 0 0 0 1 0" result="glowColor"/><feBlend in="SourceGraphic" in2="glowColor" mode="screen"/></filter></defs><g transform="translate(10 18)"><path d="M98 288L80 272L64 286L83 289L92 301L109 296Z" fill="#0C1116"/><path d="M382 138L362 156L346 173L354 219L373 212L394 188L401 151Z" fill="#22313E"/><path d="M383 142L413 129L407 178L385 208L376 176Z" fill="#0B1218"/><path d="M86 222L110 182L146 155L212 136L283 140L329 165L350 192L339 212L307 204L274 176L237 170L192 177L147 198L116 230L102 257L89 254Z" fill="url(#beastTop)"/><path d="M87 224L77 260L79 312L100 334L141 341L132 287L154 294L190 304L194 346L238 346L234 318L270 330L343 336L392 311L386 288L339 279L299 244L280 210L238 198L194 202L152 214L116 236Z" fill="#0A1015"/><path d="M206 183L240 159L298 160L339 178L363 208L360 248L340 283L307 311L260 327L214 323L176 298L160 258L164 220Z" fill="url(#beastFace)"/><path d="M260 180L309 173L350 191L338 211L294 208L274 219L301 242L322 271L310 289L277 279L251 247L235 221L229 199Z" fill="#101920"/><path d="M331 188L361 198L385 224L372 229L352 218L338 205Z" fill="#71879B"/><path d="M284 228L318 236L334 252L321 267L291 259L275 242Z" fill="#04090D"/><path d="M168 203L151 247L154 296L176 331L206 345L187 295L191 254L188 220Z" fill="#213140"/><path d="M229 197L215 237L219 300L240 345L270 346L252 303L250 254L245 214Z" fill="#1C2A35"/><path d="M130 214L110 239L101 286L105 321L90 319L74 288L76 250L88 222L112 199Z" fill="#304555"/><path d="M364 215L389 232L402 262L398 301L378 321L346 327L367 286L360 245Z" fill="#10171D"/><path d="M322 169L356 138L385 136L379 160L356 170L344 190Z" fill="#0B1217"/><path d="M343 131L361 112L375 126L365 144Z" fill="#081015"/><path d="M365 170L401 157L391 207L363 236L352 224L361 198Z" fill="#E9EEF1"/><path d="M348 191L381 182L373 221L352 245L341 231Z" fill="#CBD5DB"/><path d="M155 148L176 124L208 112L249 116L275 136L252 150L211 145L180 151Z" fill="#C18A59"/><path d="M159 151L151 171L158 193L179 202L194 191L191 172L183 157Z" fill="#D59D69"/><path d="M191 171L208 156L238 158L257 170L266 191L259 205L234 208L209 202L197 188Z" fill="#C99260"/><path d="M241 118L251 101L273 102L287 119L275 136L253 134Z" fill="#10242F"/><path d="M238 103L231 88L239 83L249 96L251 110Z" fill="#10242F"/><path d="M252 100L267 82L279 84L283 99L273 111L259 110Z" fill="#10242F"/><path d="M207 202L223 213L245 214L261 204L273 192L292 192L303 202L297 214L277 223L258 230L237 232L219 227L205 216Z" fill="#F0E6D7"/><path d="M258 204L274 213L287 210L293 201L281 194L268 193Z" fill="#10242F"/><path d="M183 196L160 208L142 223L147 236L171 227L190 212Z" fill="#D59D69"/><path d="M165 207L145 227L133 249L143 257L159 246L171 227Z" fill="#C18A59"/><path d="M203 150L211 131L224 127L229 144L221 158Z" fill="#B27A4D"/><path d="M231 206L245 226L261 236L276 231L281 219L264 208L246 203Z" fill="#10242F" opacity="0.9"/><path d="M261 149L329 97L339 111L275 173Z" fill="#214256"/><path d="M327 92L354 82L339 111Z" fill="#214256"/><path d="M328 95L353 81L346 105L339 111Z" fill="#4F7B91"/><path d="M92 240L70 262L51 280L62 283L79 272L99 288L118 284L111 262Z" fill="#10171D"/><path d="M178 340L192 358H234L221 340Z" fill="#10171D"/><path d="M312 330L340 346L373 341L355 326Z" fill="#0B1116"/><path d="M246 250L277 245L302 253L287 275L260 277L244 266Z" fill="url(#eyeGlow)" filter="url(#glow)"/><path d="M262 253L283 254L273 265L256 265Z" fill="#D9FBFF" opacity="0.72"/></g><g transform="translate(510 58)"><text x="0" y="122" fill="#0D1117" font-family="Inter, Arial, Helvetica, sans-serif" font-size="146" font-weight="900" letter-spacing="2">PIGMEU</text><text x="0" y="240" fill="#1A2430" font-family="Inter, Arial, Helvetica, sans-serif" font-size="110" font-weight="300" letter-spacing="8">NEVER FORGET</text></g></svg>
